<svg width="16" height="16" viewBox="0 0 16 16" fill="none" xmlns="http://www.w3.org/2000/svg">
<path d="M4.33329 2.49996C4.33329 2.98619 4.14014 3.45251 3.79632 3.79632C3.45251 4.14014 2.98619 4.33329 2.49996 4.33329C2.01373 4.33329 1.54741 4.14014 1.2036 3.79632C0.85978 3.45251 0.666626 2.98619 0.666626 2.49996C0.666626 2.01373 0.85978 1.54741 1.2036 1.2036C1.54741 0.85978 2.01373 0.666626 2.49996 0.666626C2.98619 0.666626 3.45251 0.85978 3.79632 1.2036C4.14014 1.54741 4.33329 2.01373 4.33329 2.49996Z" fill="white"/>
<path d="M4.33329 7.99996C4.33329 8.48619 4.14014 8.9525 3.79632 9.29632C3.45251 9.64014 2.98619 9.83329 2.49996 9.83329C2.01373 9.83329 1.54741 9.64014 1.2036 9.29632C0.85978 8.9525 0.666626 8.48619 0.666626 7.99996C0.666626 7.51373 0.85978 7.04741 1.2036 6.7036C1.54741 6.35978 2.01373 6.16663 2.49996 6.16663C2.98619 6.16663 3.45251 6.35978 3.79632 6.7036C4.14014 7.04741 4.33329 7.51373 4.33329 7.99996Z" fill="white"/>
<path d="M2.49996 15.3333C2.98619 15.3333 3.45251 15.1401 3.79632 14.7963C4.14014 14.4525 4.33329 13.9862 4.33329 13.5C4.33329 13.0137 4.14014 12.5474 3.79632 12.2036C3.45251 11.8598 2.98619 11.6666 2.49996 11.6666C2.01373 11.6666 1.54741 11.8598 1.2036 12.2036C0.85978 12.5474 0.666626 13.0137 0.666626 13.5C0.666626 13.9862 0.85978 14.4525 1.2036 14.7963C1.54741 15.1401 2.01373 15.3333 2.49996 15.3333Z" fill="white"/>
<path d="M9.83329 2.49996C9.83329 2.98619 9.64014 3.45251 9.29632 3.79632C8.9525 4.14014 8.48619 4.33329 7.99996 4.33329C7.51373 4.33329 7.04741 4.14014 6.7036 3.79632C6.35978 3.45251 6.16663 2.98619 6.16663 2.49996C6.16663 2.01373 6.35978 1.54741 6.7036 1.2036C7.04741 0.85978 7.51373 0.666626 7.99996 0.666626C8.48619 0.666626 8.9525 0.85978 9.29632 1.2036C9.64014 1.54741 9.83329 2.01373 9.83329 2.49996Z" fill="white"/>
<path d="M7.99996 9.83329C8.48619 9.83329 8.9525 9.64014 9.29632 9.29632C9.64014 8.9525 9.83329 8.48619 9.83329 7.99996C9.83329 7.51373 9.64014 7.04741 9.29632 6.7036C8.9525 6.35978 8.48619 6.16663 7.99996 6.16663C7.51373 6.16663 7.04741 6.35978 6.7036 6.7036C6.35978 7.04741 6.16663 7.51373 6.16663 7.99996C6.16663 8.48619 6.35978 8.9525 6.7036 9.29632C7.04741 9.64014 7.51373 9.83329 7.99996 9.83329Z" fill="white"/>
<path d="M9.83329 13.5C9.83329 13.9862 9.64014 14.4525 9.29632 14.7963C8.9525 15.1401 8.48619 15.3333 7.99996 15.3333C7.51373 15.3333 7.04741 15.1401 6.7036 14.7963C6.35978 14.4525 6.16663 13.9862 6.16663 13.5C6.16663 13.0137 6.35978 12.5474 6.7036 12.2036C7.04741 11.8598 7.51373 11.6666 7.99996 11.6666C8.48619 11.6666 8.9525 11.8598 9.29632 12.2036C9.64014 12.5474 9.83329 13.0137 9.83329 13.5Z" fill="white"/>
<path d="M13.5 4.33329C13.9862 4.33329 14.4525 4.14014 14.7963 3.79632C15.1401 3.45251 15.3333 2.98619 15.3333 2.49996C15.3333 2.01373 15.1401 1.54741 14.7963 1.2036C14.4525 0.85978 13.9862 0.666626 13.5 0.666626C13.0137 0.666626 12.5474 0.85978 12.2036 1.2036C11.8598 1.54741 11.6666 2.01373 11.6666 2.49996C11.6666 2.98619 11.8598 3.45251 12.2036 3.79632C12.5474 4.14014 13.0137 4.33329 13.5 4.33329Z" fill="white"/>
<path d="M15.3333 7.99996C15.3333 8.48619 15.1401 8.9525 14.7963 9.29632C14.4525 9.64014 13.9862 9.83329 13.5 9.83329C13.0137 9.83329 12.5474 9.64014 12.2036 9.29632C11.8598 8.9525 11.6666 8.48619 11.6666 7.99996C11.6666 7.51373 11.8598 7.04741 12.2036 6.7036C12.5474 6.35978 13.0137 6.16663 13.5 6.16663C13.9862 6.16663 14.4525 6.35978 14.7963 6.7036C15.1401 7.04741 15.3333 7.51373 15.3333 7.99996Z" fill="white"/>
<path d="M13.5 15.3333C13.9862 15.3333 14.4525 15.1401 14.7963 14.7963C15.1401 14.4525 15.3333 13.9862 15.3333 13.5C15.3333 13.0137 15.1401 12.5474 14.7963 12.2036C14.4525 11.8598 13.9862 11.6666 13.5 11.6666C13.0137 11.6666 12.5474 11.8598 12.2036 12.2036C11.8598 12.5474 11.6666 13.0137 11.6666 13.5C11.6666 13.9862 11.8598 14.4525 12.2036 14.7963C12.5474 15.1401 13.0137 15.3333 13.5 15.3333Z" fill="white"/>
</svg>
