<svg width="107" height="30" viewBox="0 0 107 30" fill="none" xmlns="http://www.w3.org/2000/svg">
<g clip-path="url(#clip0)">
<path d="M5.62092 26.9791C5.45903 26.9793 5.2987 27.0118 5.14842 27.0746C4.99645 27.1379 4.85888 27.2336 4.74458 27.3558C4.61956 27.4918 4.52244 27.653 4.45918 27.8295C4.38327 28.0412 4.34672 28.2659 4.35149 28.4918C4.34958 28.6932 4.37775 28.8939 4.43495 29.0863C4.48707 29.261 4.57479 29.4217 4.69206 29.5574C4.81449 29.6957 4.96551 29.8028 5.13362 29.8708C5.33448 29.9493 5.54785 29.987 5.76226 29.982C5.85536 29.9825 5.94841 29.9774 6.04092 29.9666C6.13111 29.9553 6.21592 29.9411 6.29533 29.9257C6.37477 29.9103 6.44342 29.8906 6.50535 29.8708C6.55451 29.855 6.60263 29.8357 6.64938 29.8133L6.61707 29.6079C6.60997 29.5672 6.59495 29.5285 6.57293 29.4941C6.55091 29.4597 6.52234 29.4303 6.48903 29.408C6.45571 29.3856 6.41832 29.3707 6.37924 29.3639C6.34013 29.3572 6.30013 29.3589 6.26169 29.369C6.12317 29.3995 5.98189 29.4142 5.84034 29.4125C5.62372 29.4301 5.4084 29.3647 5.23456 29.2285C5.16386 29.1599 5.10687 29.0774 5.0669 28.9858C5.02692 28.8939 5.00476 28.795 5.00169 28.6942H6.81227C6.81227 28.6576 6.81227 28.6169 6.81227 28.5705C6.81227 28.5241 6.81227 28.4834 6.81227 28.4469C6.81227 27.9623 6.70681 27.5971 6.49592 27.3515C6.38426 27.2276 6.24831 27.1299 6.09731 27.0657C5.94631 27.0015 5.78384 26.9719 5.62092 26.9791ZM5.00706 28.2007C5.01838 28.1197 5.03779 28.04 5.06496 27.9631C5.09178 27.8858 5.13143 27.8139 5.18206 27.7509C5.23393 27.6876 5.2976 27.6359 5.36919 27.5991C5.44811 27.563 5.53339 27.5442 5.61957 27.5442C5.70576 27.5442 5.79103 27.563 5.86995 27.5991C5.93693 27.6323 5.99618 27.6801 6.0436 27.7396C6.09207 27.8031 6.1286 27.8757 6.1513 27.9534C6.17693 28.0345 6.19099 28.1194 6.19304 28.2051L5.00706 28.2007Z" fill="white"/>
<path d="M9.12506 27.1533C9.04158 27.1081 8.95411 27.0715 8.8639 27.0438C8.74941 27.0087 8.63049 26.9921 8.5112 26.9945C8.33308 26.9907 8.15624 27.027 7.99293 27.1013C7.84459 27.1689 7.71326 27.2714 7.60927 27.4008C7.50006 27.5404 7.419 27.7016 7.371 27.8745C7.31391 28.0742 7.28623 28.2818 7.28889 28.4904C7.28588 28.7024 7.31868 28.9131 7.3858 29.113C7.4454 29.2891 7.54043 29.4496 7.66447 29.5841C7.78781 29.7154 7.93713 29.8172 8.10198 29.8821C8.28831 29.9546 8.48603 29.9899 8.68485 29.9861C8.88718 29.989 9.08939 29.974 9.28928 29.9411C9.44987 29.9158 9.60864 29.8793 9.76448 29.8314V25.6675L9.12909 25.7769L9.12506 27.1533ZM9.12506 29.3719C9.08062 29.383 9.02139 29.3928 8.95006 29.4027C8.86374 29.4118 8.77699 29.4161 8.69025 29.4154C8.5863 29.4212 8.48247 29.4017 8.38693 29.3587C8.29141 29.3153 8.20676 29.2497 8.13967 29.1664C7.99796 28.9692 7.92826 28.7255 7.94311 28.4791C7.93089 28.2443 7.98672 28.0112 8.1033 27.8098C8.16009 27.7266 8.23656 27.6602 8.32528 27.6171C8.41401 27.5741 8.51192 27.5555 8.60947 27.5639C8.71034 27.563 8.81059 27.5805 8.90562 27.6159C8.98403 27.6431 9.05871 27.6809 9.12774 27.7283L9.12506 29.3719Z" fill="white"/>
<path d="M10.5209 29.9202C10.6894 29.9202 10.8511 29.8502 10.9702 29.7258C11.0894 29.6014 11.1563 29.4325 11.1563 29.2567V27.0537C10.9878 27.0537 10.8262 27.1235 10.707 27.2479C10.5879 27.3725 10.5209 27.5411 10.5209 27.7172V29.9202Z" fill="white"/>
<path d="M13.6983 27.2952C13.6034 27.1905 13.4856 27.1114 13.3551 27.0647C13.1844 27.0043 13.0049 26.9752 12.8247 26.9788C12.6595 26.9779 12.4946 26.9923 12.332 27.0224C12.2132 27.0457 12.0962 27.0782 11.982 27.1196L12.0116 27.3262C12.0178 27.3666 12.0316 27.4054 12.0523 27.44C12.073 27.4749 12.1001 27.505 12.1321 27.5285C12.1641 27.5524 12.2002 27.5692 12.2385 27.5781C12.2767 27.587 12.3163 27.5877 12.3549 27.5805C12.4883 27.5572 12.6234 27.5459 12.7587 27.5468C12.8502 27.5447 12.9414 27.5593 13.028 27.5904C13.0944 27.6168 13.1538 27.6592 13.2016 27.7143C13.2451 27.7674 13.2764 27.8305 13.2931 27.8983C13.3135 27.9676 13.3253 28.0395 13.3282 28.1119V28.2216C13.1756 28.1805 13.0186 28.1603 12.861 28.1613C12.7158 28.1608 12.571 28.1764 12.4289 28.2077C12.2993 28.2346 12.1756 28.2866 12.0641 28.3609C11.96 28.4314 11.8744 28.5281 11.8151 28.6419C11.7492 28.7716 11.7176 28.9171 11.7235 29.0637C11.7191 29.2126 11.7467 29.3605 11.8043 29.4967C11.856 29.6088 11.9338 29.7055 12.0305 29.7779C12.1342 29.852 12.2508 29.904 12.3737 29.9312C12.5218 29.9651 12.6731 29.9815 12.8247 29.9803C13.0498 29.9824 13.2748 29.9668 13.4978 29.9341C13.6957 29.9016 13.8437 29.8763 13.9406 29.854V28.1177C13.9426 27.9611 13.924 27.805 13.8855 27.6536C13.8521 27.5201 13.7879 27.3969 13.6983 27.2952ZM13.3282 29.4209C13.181 29.4471 13.0318 29.4584 12.8826 29.4546C12.7478 29.4637 12.6132 29.4341 12.4935 29.3687C12.4454 29.3319 12.4075 29.2821 12.3839 29.2248C12.3602 29.1676 12.3516 29.1046 12.3589 29.0427C12.3564 28.972 12.3747 28.9025 12.4114 28.8431C12.4454 28.7904 12.4917 28.7478 12.546 28.7194C12.6074 28.6893 12.6728 28.6689 12.7399 28.6588C12.8104 28.6489 12.8814 28.6436 12.9526 28.6434C13.026 28.6431 13.0993 28.6484 13.172 28.6588C13.2234 28.6667 13.2742 28.6778 13.3241 28.6927L13.3282 29.4209Z" fill="white"/>
<path d="M16.0324 29.3778C15.9321 29.4048 15.8289 29.4175 15.7254 29.4158C15.6596 29.4238 15.5928 29.4151 15.5308 29.3906C15.4688 29.3663 15.4132 29.3266 15.3687 29.2753C15.2862 29.1259 15.2496 28.9537 15.2637 28.7819V27.6149H15.7106C15.7802 27.6149 15.8491 27.6007 15.9134 27.5728C15.9777 27.5449 16.036 27.5042 16.0852 27.4527C16.1343 27.4012 16.1733 27.3401 16.1998 27.273C16.2263 27.2057 16.2398 27.1337 16.2397 27.0611H15.2637V26.1895L14.6297 26.2992V28.7805C14.6274 28.9508 14.6432 29.1211 14.6768 29.2878C14.7029 29.4252 14.7586 29.5546 14.8397 29.666C14.921 29.7736 15.029 29.8558 15.152 29.9037C15.3088 29.9634 15.4751 29.9915 15.642 29.9867C15.7836 29.9886 15.9248 29.9713 16.062 29.9345C16.1601 29.9071 16.2563 29.8729 16.35 29.832L16.2895 29.5395C16.2837 29.5109 16.2723 29.4834 16.256 29.4594C16.2397 29.4353 16.2189 29.4151 16.1948 29.3997C16.1707 29.3846 16.1438 29.3745 16.1159 29.3706C16.088 29.3665 16.0595 29.3684 16.0324 29.3766V29.3778Z" fill="white"/>
<path d="M17.8767 26.9795C17.7152 26.98 17.5554 27.0122 17.4055 27.075C17.2534 27.1378 17.1158 27.2338 17.0017 27.3563C16.8758 27.4917 16.7781 27.6531 16.7149 27.83C16.6397 28.0417 16.6032 28.2664 16.6072 28.4923C16.6051 28.6939 16.6337 28.8945 16.6921 29.0867C16.7437 29.2616 16.8315 29.4223 16.9492 29.5578C17.0711 29.6959 17.2217 29.8032 17.3893 29.8713C17.5907 29.9497 17.8045 29.9875 18.0194 29.9824C18.112 29.9829 18.2046 29.9778 18.2967 29.9668C18.3882 29.9557 18.473 29.9415 18.5511 29.9261C18.6292 29.9107 18.7005 29.891 18.7611 29.8713C18.8103 29.8556 18.8585 29.8364 18.9051 29.8138L18.8742 29.6083C18.8676 29.5677 18.8532 29.5289 18.8318 29.4943C18.8105 29.4596 18.7825 29.4298 18.7498 29.4069C18.717 29.3839 18.6802 29.368 18.6414 29.3603C18.6026 29.3528 18.5627 29.3533 18.5242 29.3624C18.3852 29.3928 18.2435 29.4074 18.1015 29.406C17.8843 29.4269 17.6673 29.3639 17.4917 29.2289C17.4205 29.1606 17.3632 29.0781 17.323 28.9864C17.2827 28.8948 17.2605 28.7954 17.2574 28.6946H19.068C19.068 28.658 19.0748 28.6174 19.0761 28.5709C19.0774 28.5245 19.0761 28.4836 19.0761 28.4473C19.0761 27.9625 18.9702 27.5976 18.7584 27.3519C18.6462 27.2268 18.5091 27.1284 18.3569 27.0642C18.2046 27 18.0407 26.9709 17.8767 26.9795ZM17.2628 28.2012C17.2735 28.1167 17.2929 28.0337 17.3207 27.9536C17.3475 27.8759 17.3876 27.804 17.4392 27.7414C17.4908 27.6784 17.554 27.6269 17.6249 27.5896C17.7053 27.5499 17.7932 27.5302 17.8821 27.5319C17.9664 27.5302 18.05 27.548 18.1271 27.5841C18.1934 27.6175 18.2521 27.6654 18.2994 27.7246C18.3483 27.7876 18.3849 27.8603 18.407 27.9382C18.4316 28.0224 18.4439 28.1102 18.4434 28.1983L17.2628 28.2012Z" fill="white"/>
<path d="M21.935 27.7748C21.9042 27.6211 21.8397 27.4767 21.7466 27.3531C21.6511 27.2326 21.5272 27.1402 21.3872 27.0846C21.2077 27.0151 21.0171 26.9826 20.8258 26.9891C20.6077 26.9869 20.3898 27.0035 20.1743 27.0382C20.0136 27.0632 19.8545 27.0978 19.6977 27.1423V29.251C19.6968 29.3383 19.7124 29.4247 19.7437 29.5055C19.7749 29.5864 19.8211 29.6602 19.8796 29.7223C19.9381 29.7844 20.0079 29.8339 20.0848 29.8678C20.1617 29.902 20.2442 29.9196 20.3277 29.9203V27.6076C20.3708 27.6006 20.4354 27.5908 20.5229 27.5809C20.6064 27.5698 20.6905 27.5643 20.7747 27.5641C20.8664 27.5622 20.9576 27.578 21.0439 27.6105C21.1157 27.6375 21.1781 27.6865 21.2229 27.751C21.2709 27.8311 21.303 27.9206 21.3172 28.014C21.3376 28.1434 21.3471 28.2747 21.3454 28.4061V29.2496C21.3454 29.4257 21.4124 29.5943 21.5315 29.7189C21.6507 29.8433 21.8123 29.9131 21.9808 29.9131V28.3091C21.9851 28.1297 21.9698 27.9504 21.935 27.7748Z" fill="white"/>
<path d="M0.841022 26.2173C0.916406 26.358 0.999869 26.5182 1.09141 26.715C1.18295 26.9118 1.27718 27.1199 1.37275 27.3321C1.46833 27.5445 1.56256 27.7666 1.65679 27.9887C1.75102 28.2109 1.83718 28.4176 1.91525 28.606L2.17103 27.9887C2.26077 27.7666 2.35456 27.5477 2.45236 27.3321C2.55018 27.1166 2.64398 26.9109 2.73373 26.715C2.82527 26.5182 2.90873 26.3537 2.98411 26.2173H3.56565C3.59662 26.4887 3.62623 26.7798 3.65314 27.0805C3.68008 27.3814 3.70699 27.6964 3.72852 28.0154C3.75006 28.3346 3.77294 28.6551 3.7918 28.9769C3.81063 29.2991 3.82679 29.614 3.8416 29.9205H3.78775C3.63219 29.921 3.4825 29.8582 3.37026 29.7458C3.258 29.6332 3.19196 29.4795 3.18602 29.3174C3.17661 29.0782 3.16719 28.8365 3.15776 28.5903C3.13801 28.134 3.10929 27.692 3.0716 27.2648C3.0339 27.3463 2.98949 27.4447 2.93699 27.5585C2.88449 27.6725 2.82794 27.7962 2.7741 27.9297C2.72025 28.0632 2.65834 28.2011 2.59775 28.3445L2.4241 28.7578C2.36757 28.8983 2.31641 29.0164 2.26795 29.1316C2.21949 29.2469 2.1791 29.3467 2.14545 29.4283H1.97179C1.88056 29.4285 1.79131 29.4006 1.71518 29.3482C1.63905 29.2955 1.57941 29.2209 1.54372 29.1331C1.49525 29.0164 1.44275 28.8913 1.38756 28.7563L1.21256 28.3387C1.15333 28.1982 1.0941 28.0577 1.03621 27.9268L0.871982 27.5559C0.820828 27.4404 0.775957 27.3434 0.737368 27.2648C0.695188 27.692 0.666919 28.134 0.65256 28.5903C0.6382 29.047 0.621597 29.4901 0.602751 29.9205C0.520697 29.9205 0.439481 29.9032 0.364096 29.8692C0.288712 29.8356 0.220752 29.7858 0.164393 29.7237C0.108034 29.6614 0.0644681 29.5875 0.0363726 29.5072C0.00827714 29.4266 -0.00375399 29.3409 0.00101885 29.2553C0.00640349 29.1617 0.0117881 29.0679 0.0171727 28.9743C0.036019 28.6471 0.0566601 28.3223 0.0790959 28C0.101981 27.6781 0.127558 27.3646 0.154481 27.0622C0.181404 26.76 0.212366 26.4802 0.243327 26.2187L0.841022 26.2173Z" fill="white"/>
<path d="M11.1563 25.4326V26.0624C11.1563 26.2383 11.0894 26.4072 10.9702 26.5316C10.8511 26.6562 10.6894 26.726 10.5209 26.726V26.0961C10.5209 25.9203 10.5879 25.7514 10.707 25.627C10.8262 25.5026 10.9878 25.4326 11.1563 25.4326Z" fill="white"/>
<path fill-rule="evenodd" clip-rule="evenodd" d="M19.8056 8.00724e-06H2.18317C1.60696 8.00724e-06 1.05435 0.23655 0.646901 0.657597C0.239459 1.07865 0.0105591 1.64971 0.0105591 2.24516V20.456C0.010559 20.7508 0.0667693 21.0426 0.175977 21.3149C0.285184 21.5872 0.445248 21.8346 0.647017 22.0429C0.848789 22.2512 1.08831 22.4164 1.35189 22.529C1.61547 22.6416 1.89795 22.6995 2.18317 22.6992H9.00445C9.46585 22.6992 9.90832 22.5098 10.2346 22.1726C10.5608 21.8355 10.7441 21.3783 10.7441 20.9015L10.7325 17.5537V17.5358L9.16297 15.9138C9.10258 15.8512 9.06855 15.7665 9.06824 15.6781V14.4796C9.06861 14.428 9.08049 14.3772 9.10295 14.3311C9.12542 14.2851 9.15785 14.245 9.19775 14.214C9.23691 14.1809 9.28303 14.1579 9.33241 14.1468C9.38178 14.1357 9.433 14.1368 9.48189 14.15C9.55052 14.1721 9.61042 14.2165 9.65258 14.2766C9.69474 14.3367 9.71693 14.4094 9.71579 14.4836V15.5363L10.7306 16.579V14.5036C10.7287 14.4176 10.7583 14.334 10.8135 14.2695C10.8687 14.2051 10.9454 14.1646 11.0282 14.156C11.0731 14.1523 11.1182 14.1581 11.1608 14.1733C11.2034 14.1884 11.2425 14.2124 11.2756 14.2439C11.3086 14.2752 11.3348 14.3132 11.3528 14.3554C11.3708 14.3977 11.38 14.4434 11.38 14.4896V19.6351L12.9863 17.9772V16.9785C12.9864 16.9325 12.9955 16.887 13.0131 16.8447C13.0307 16.8025 13.0565 16.7644 13.0887 16.7328C13.1219 16.7013 13.161 16.6775 13.2036 16.6627C13.2462 16.6479 13.2914 16.6425 13.3362 16.6469C13.4183 16.6558 13.4942 16.6963 13.549 16.7603C13.6037 16.8242 13.6333 16.9071 13.6319 16.9924V18.101C13.6318 18.1458 13.6226 18.1901 13.605 18.2311C13.5873 18.272 13.5616 18.3087 13.5294 18.3387L11.3878 20.5739L11.3762 20.5879V20.8975C11.3744 21.1347 11.4181 21.37 11.5047 21.5897C11.5913 21.8094 11.7192 22.0093 11.8809 22.1777C12.0426 22.3461 12.235 22.4798 12.4469 22.571C12.6589 22.6622 12.8862 22.7092 13.1158 22.7092H19.8115C20.3871 22.7092 20.9393 22.4728 21.3463 22.0522C21.7534 21.6315 21.9821 21.0609 21.9821 20.466V2.24516C21.9824 1.94991 21.9262 1.65751 21.8169 1.38474C21.7076 1.11197 21.5472 0.86418 21.345 0.655595C21.1428 0.44701 20.9027 0.281726 20.6386 0.169225C20.3744 0.0567241 20.0914 -0.000780842 19.8056 8.00724e-06ZM5.24299 8.61108C5.2445 8.47208 5.29889 8.33928 5.39436 8.24136C5.48983 8.14342 5.61876 8.08826 5.75327 8.08773H7.95488C8.08956 8.08773 8.21876 8.14275 8.31435 8.24079C8.40994 8.33882 8.46416 8.47191 8.46519 8.61108V10.8842C8.46519 10.9534 8.45199 11.022 8.42633 11.086C8.40068 11.15 8.3631 11.2081 8.3157 11.2571C8.26833 11.306 8.21208 11.3449 8.15016 11.3714C8.08825 11.3979 8.0219 11.4115 7.95488 11.4115H5.75327C5.61825 11.4105 5.48904 11.3546 5.39357 11.2559C5.29809 11.1573 5.24399 11.0237 5.24299 10.8842V8.61108ZM4.44082 15.9118V13.4369C4.44107 13.3685 4.45439 13.3008 4.47997 13.2376C4.50556 13.1744 4.54292 13.1171 4.58995 13.0689C4.63698 13.0207 4.69273 12.9825 4.75403 12.9565C4.81535 12.9306 4.881 12.9173 4.94726 12.9176H7.34214C7.40821 12.9173 7.47367 12.9306 7.53476 12.9566C7.59585 12.9826 7.65137 13.0209 7.69807 13.0691C7.7448 13.1174 7.78181 13.1748 7.80698 13.2379C7.83215 13.301 7.84497 13.3687 7.84472 13.4369V15.9118C7.84497 15.9801 7.83215 16.0477 7.80698 16.1109C7.78181 16.174 7.7448 16.2313 7.69807 16.2796C7.65137 16.3279 7.59585 16.3661 7.53476 16.3921C7.47367 16.4182 7.40821 16.4314 7.34214 16.4311H4.94726C4.881 16.4314 4.81535 16.4182 4.75403 16.3922C4.69273 16.3663 4.63698 16.3281 4.58995 16.2799C4.54292 16.2316 4.50556 16.1743 4.47997 16.1112C4.45439 16.048 4.44107 15.9803 4.44082 15.9118ZM8.85949 19.1897C8.85846 19.336 8.80133 19.4761 8.70062 19.579C8.59991 19.682 8.46381 19.7395 8.32213 19.7389H7.35567C7.215 19.7379 7.0804 19.6797 6.98092 19.5769C6.88147 19.4741 6.82513 19.335 6.82413 19.1897V18.1909C6.82564 18.0463 6.88233 17.9081 6.98185 17.8064C7.08138 17.7046 7.2157 17.6476 7.35567 17.6476H8.32213C8.46244 17.6476 8.59707 17.7049 8.69664 17.8071C8.79621 17.9092 8.85267 18.0479 8.85369 18.1929L8.85949 19.1897ZM16.8695 10.3229V12.5401C16.8695 12.6766 16.8173 12.8076 16.7243 12.9045C16.6312 13.0014 16.5049 13.0564 16.3728 13.0574H14.2234C14.0907 13.0569 13.9637 13.0022 13.8699 12.9053C13.7762 12.8084 13.7232 12.6771 13.7227 12.5401V10.3229C13.7232 10.1859 13.7762 10.0546 13.8699 9.95767C13.9637 9.86076 14.0907 9.80608 14.2234 9.80555H16.3728C16.5049 9.80661 16.6312 9.86158 16.7243 9.95848C16.8173 10.0554 16.8695 10.1864 16.8695 10.3229ZM13.3477 7.16892C13.3483 7.0271 13.403 6.89124 13.5 6.79097C13.5971 6.69067 13.7285 6.63411 13.8658 6.63358H14.8168C14.954 6.63411 15.0855 6.69067 15.1825 6.79097C15.2796 6.89124 15.3343 7.0271 15.3348 7.16892V8.14766C15.3343 8.28948 15.2796 8.42533 15.1825 8.52561C15.0855 8.6259 14.954 8.68246 14.8168 8.68299H13.8716C13.8031 8.68352 13.7352 8.67007 13.6719 8.64342C13.6084 8.61679 13.5507 8.57747 13.5021 8.52772C13.4534 8.47799 13.4147 8.41881 13.3883 8.35359C13.3618 8.28837 13.348 8.21839 13.3477 8.14766V7.16892ZM9.77958 4.1048C9.77932 4.0283 9.79366 3.95249 9.82183 3.88174C9.84998 3.81099 9.89137 3.74668 9.94363 3.6925C9.99588 3.6383 10.058 3.59531 10.1263 3.56598C10.1947 3.53663 10.268 3.52155 10.3421 3.52155H11.7434C11.8175 3.52155 11.8907 3.53663 11.9591 3.56598C12.0275 3.59531 12.0896 3.6383 12.1418 3.6925C12.1941 3.74668 12.2355 3.81099 12.2636 3.88174C12.2918 3.95249 12.3062 4.0283 12.3059 4.1048V5.55096C12.3059 5.70512 12.2466 5.85296 12.1411 5.96196C12.0357 6.07099 11.8926 6.13222 11.7434 6.13222H10.3421C10.1929 6.13222 10.0498 6.07099 9.94431 5.96196C9.83883 5.85296 9.77958 5.70512 9.77958 5.55096V4.1048ZM11.8807 7.7222V8.41532C11.8781 8.51531 11.8379 8.61029 11.7686 8.68008C11.6993 8.74985 11.6063 8.78889 11.5095 8.78885H10.8349C10.7372 8.78832 10.6436 8.74797 10.5744 8.67652C10.5053 8.60509 10.4663 8.50836 10.4657 8.40734V7.7222C10.4663 7.62118 10.5053 7.52444 10.5744 7.45302C10.6436 7.38159 10.7372 7.34122 10.8349 7.34069H11.5057C11.6038 7.34069 11.6979 7.38082 11.7674 7.45232C11.837 7.52379 11.8763 7.62084 11.8768 7.7222H11.8807ZM12.4373 12.1845C12.4368 12.347 12.3741 12.5027 12.263 12.6176C12.1518 12.7325 12.0012 12.7972 11.8439 12.7978H10.3304C10.1754 12.7941 10.0279 12.7279 9.91956 12.6133C9.81119 12.4987 9.75052 12.3448 9.75057 12.1845V10.6225C9.75052 10.4623 9.81119 10.3084 9.91956 10.1938C10.0279 10.0792 10.1754 10.013 10.3304 10.0093H11.8439C12.0012 10.0098 12.1518 10.0746 12.263 10.1895C12.3741 10.3044 12.4368 10.46 12.4373 10.6225V12.1845ZM14.5636 15.6062C14.562 15.7192 14.5177 15.8272 14.4399 15.9067C14.3622 15.9863 14.2574 16.0311 14.148 16.0317H13.3922C13.2833 16.0306 13.1792 15.9855 13.1022 15.9059C13.0252 15.8263 12.9815 15.7187 12.9805 15.6062V14.8212C12.981 14.7081 13.0244 14.5998 13.1014 14.5195C13.1784 14.4392 13.2828 14.3933 13.3922 14.3917H14.1518C14.2619 14.3923 14.3673 14.4377 14.4451 14.5181C14.523 14.5985 14.5669 14.7075 14.5674 14.8212L14.5636 15.6062ZM17.2368 16.8366C17.2368 16.9754 17.1834 17.1085 17.0885 17.2067C16.9935 17.3048 16.8647 17.36 16.7304 17.36H15.8026C15.7359 17.3605 15.6698 17.3473 15.6082 17.3212C15.5465 17.2951 15.4905 17.2566 15.4433 17.2079C15.3962 17.1592 15.3589 17.1013 15.3336 17.0375C15.3084 16.9738 15.2956 16.9055 15.2961 16.8366V15.8758C15.2959 15.807 15.3088 15.7387 15.3341 15.675C15.3595 15.6112 15.3967 15.5533 15.4438 15.5045C15.4908 15.4557 15.5467 15.417 15.6083 15.3906C15.6699 15.3641 15.7359 15.3505 15.8026 15.3505H16.7342C16.8686 15.3516 16.9971 15.4073 17.0919 15.5057C17.1867 15.604 17.2402 15.737 17.2407 15.8758L17.2368 16.8366Z" fill="white"/>
</g>
<path d="M34.3457 14.4688L36.25 20.4043L38.1484 14.4688H40.8555V23H38.793V21.0078L38.9922 16.9297L36.9297 23H35.5703L33.502 16.9238L33.7012 21.0078V23H31.6445V14.4688H34.3457Z" fill="white"/>
<path d="M49.859 19.3848H46.6246V21.418H50.4449V23H44.568V14.4688H50.4566V16.0566H46.6246V17.8555H49.859V19.3848Z" fill="white"/>
<path d="M53.6828 23V14.4688H56.4309C57.1848 14.4688 57.8625 14.6406 58.4641 14.9844C59.0656 15.3242 59.5344 15.8066 59.8703 16.4316C60.2102 17.0527 60.382 17.75 60.3859 18.5234V18.916C60.3859 19.6973 60.2199 20.3984 59.8879 21.0195C59.5598 21.6367 59.0949 22.1211 58.4934 22.4727C57.8957 22.8203 57.2277 22.9961 56.4895 23H53.6828ZM55.7395 16.0566V21.418H56.4543C57.0441 21.418 57.4973 21.209 57.8137 20.791C58.1301 20.3691 58.2883 19.7441 58.2883 18.916V18.5469C58.2883 17.7227 58.1301 17.1016 57.8137 16.6836C57.4973 16.2656 57.0363 16.0566 56.4309 16.0566H55.7395Z" fill="white"/>
<path d="M66.032 23H63.9813V14.4688H66.032V23Z" fill="white"/>
<path d="M74.8129 21.4062H71.9945L71.5023 23H69.3051L72.434 14.4688H74.3676L77.5199 23H75.3109L74.8129 21.4062ZM72.4867 19.8184H74.3207L73.4008 16.8594L72.4867 19.8184Z" fill="white"/>
<path d="M86.541 16.0566H83.9805V23H81.9238V16.0566H79.4102V14.4688H86.541V16.0566Z" fill="white"/>
<path d="M95.1051 19.3848H91.8707V21.418H95.691V23H89.8141V14.4688H95.7027V16.0566H91.8707V17.8555H95.1051V19.3848Z" fill="white"/>
<path d="M106.054 23H104.009L100.986 17.6914V23H98.9289V14.4688H100.986L104.003 19.7773V14.4688H106.054V23Z" fill="white"/>
<g opacity="0.5">
<path d="M32 9.6543V1.12305H34.748C35.502 1.12305 36.1797 1.29492 36.7812 1.63867C37.3828 1.97852 37.8516 2.46094 38.1875 3.08594C38.5273 3.70703 38.6992 4.4043 38.7031 5.17773V5.57031C38.7031 6.35156 38.5371 7.05273 38.2051 7.67383C37.877 8.29102 37.4121 8.77539 36.8105 9.12695C36.2129 9.47461 35.5449 9.65039 34.8066 9.6543H32ZM34.0566 2.71094V8.07227H34.7715C35.3613 8.07227 35.8145 7.86328 36.1309 7.44531C36.4473 7.02344 36.6055 6.39844 36.6055 5.57031V5.20117C36.6055 4.37695 36.4473 3.75586 36.1309 3.33789C35.8145 2.91992 35.3535 2.71094 34.748 2.71094H34.0566Z" fill="white"/>
<path d="M47.4488 6.03906H44.2145V8.07227H48.0348V9.6543H42.1578V1.12305H48.0465V2.71094H44.2145V4.50977H47.4488V6.03906Z" fill="white"/>
<path d="M55.673 7.38672C55.673 7.08594 55.5656 6.85156 55.3508 6.68359C55.1398 6.51562 54.7668 6.3418 54.2316 6.16211C53.6965 5.98242 53.259 5.80859 52.9191 5.64062C51.8137 5.09766 51.2609 4.35156 51.2609 3.40234C51.2609 2.92969 51.3977 2.51367 51.6711 2.1543C51.9484 1.79102 52.3391 1.50977 52.843 1.31055C53.3469 1.10742 53.9133 1.00586 54.5422 1.00586C55.1555 1.00586 55.7043 1.11523 56.1887 1.33398C56.677 1.55273 57.0559 1.86523 57.3254 2.27148C57.5949 2.67383 57.7297 3.13477 57.7297 3.6543H55.6789C55.6789 3.30664 55.5715 3.03711 55.3566 2.8457C55.1457 2.6543 54.8586 2.55859 54.4953 2.55859C54.1281 2.55859 53.8371 2.64062 53.6223 2.80469C53.4113 2.96484 53.3059 3.16992 53.3059 3.41992C53.3059 3.63867 53.423 3.83789 53.6574 4.01758C53.8918 4.19336 54.3039 4.37695 54.8937 4.56836C55.4836 4.75586 55.968 4.95898 56.3469 5.17773C57.2687 5.70898 57.7297 6.44141 57.7297 7.375C57.7297 8.12109 57.4484 8.70703 56.8859 9.13281C56.3234 9.55859 55.552 9.77148 54.5715 9.77148C53.8801 9.77148 53.2531 9.64844 52.6906 9.40234C52.132 9.15234 51.7102 8.8125 51.425 8.38281C51.1437 7.94922 51.0031 7.45117 51.0031 6.88867H53.0656C53.0656 7.3457 53.1828 7.68359 53.4172 7.90234C53.6555 8.11719 54.0402 8.22461 54.5715 8.22461C54.9113 8.22461 55.1789 8.15234 55.3742 8.00781C55.5734 7.85938 55.673 7.65234 55.673 7.38672Z" fill="white"/>
<path d="M63.3758 9.6543H61.325V1.12305H63.3758V9.6543Z" fill="white"/>
<path d="M74.1898 8.59961C73.8734 8.95117 73.4105 9.23438 72.8012 9.44922C72.1918 9.66406 71.5238 9.77148 70.7973 9.77148C69.6801 9.77148 68.7875 9.42969 68.1195 8.74609C67.4516 8.0625 67.0941 7.11133 67.0473 5.89258L67.0414 5.1543C67.0414 4.31445 67.1898 3.58203 67.4867 2.95703C67.7836 2.32812 68.2074 1.8457 68.7582 1.50977C69.3129 1.16992 69.9535 1 70.6801 1C71.7426 1 72.5668 1.24414 73.1527 1.73242C73.7426 2.2168 74.0863 2.94141 74.184 3.90625H72.2035C72.1332 3.42969 71.9809 3.08984 71.7465 2.88672C71.5121 2.68359 71.1801 2.58203 70.7504 2.58203C70.2348 2.58203 69.8363 2.80078 69.5551 3.23828C69.2738 3.67578 69.1312 4.30078 69.1273 5.11328V5.62891C69.1273 6.48047 69.2719 7.12109 69.5609 7.55078C69.8539 7.97656 70.3129 8.18945 70.9379 8.18945C71.473 8.18945 71.8715 8.07031 72.1332 7.83203V6.50781H70.7035V5.0957H74.1898V8.59961Z" fill="white"/>
<path d="M84.9102 9.6543H82.8652L79.8418 4.3457V9.6543H77.7852V1.12305H79.8418L82.8594 6.43164V1.12305H84.9102V9.6543Z" fill="white"/>
</g>
<defs>
<clipPath id="clip0">
<rect width="22" height="30" fill="white"/>
</clipPath>
</defs>
</svg>
