<svg width="16" height="23" viewBox="0 0 16 23" fill="none" xmlns="http://www.w3.org/2000/svg">
<path d="M6.75282 20.9605C6.72879 20.6772 6.80204 20.3801 6.853 20.0807C6.86602 20.0036 6.87645 19.9337 6.78612 19.8885C6.49514 19.7426 6.21893 19.5639 5.90942 19.459C5.60774 19.3569 5.2881 19.3911 5.00407 19.5064C4.83209 19.576 4.70325 19.7477 4.5582 19.877C4.01994 20.3539 3.55955 20.9071 3.19278 21.518C3.1284 21.6222 3.05733 21.7223 2.97998 21.8179C2.92761 21.8791 2.85671 21.9229 2.77729 21.9431C2.69786 21.9632 2.61392 21.9587 2.53729 21.9301C2.36763 21.86 2.1638 21.8151 2.18812 21.5682C2.19739 21.4753 2.20868 21.3825 2.2246 21.2904C2.31378 20.77 2.52368 20.2858 2.70927 19.7951C2.91194 19.2621 3.12474 18.7327 3.30946 18.1923C3.46755 17.73 3.60304 17.2522 3.89431 16.842C3.93861 16.7798 3.91023 16.6737 4.03907 16.6574C4.20034 16.6358 4.359 16.6333 4.47655 16.7416C4.73394 16.9812 5.06835 17.0872 5.36743 17.2542C5.42334 17.2817 5.47459 17.3174 5.51943 17.3599C5.55012 17.3919 5.58371 17.4334 5.55417 17.4721C5.46152 17.5917 5.55967 17.6197 5.64103 17.6632C6.01066 17.8657 6.4034 18.0258 6.8113 18.1401C6.96504 18.1825 6.98502 18.1738 7.00674 18.0189C7.03569 17.8139 7.08578 17.6152 7.19725 17.4351C7.3009 17.2668 7.49749 17.1767 7.67699 17.2645C7.97492 17.4107 8.30903 17.4278 8.61188 17.549C8.72277 17.5933 8.83453 17.6253 8.80355 17.7774C8.79283 17.8307 8.83424 17.8534 8.87332 17.8717C9.1339 17.9934 9.39737 18.1093 9.67589 18.1892C9.77057 18.2173 9.79836 18.1977 9.77491 18.0986C9.70485 17.8026 9.64491 17.5125 9.74104 17.2009C9.78041 17.0724 9.73496 16.9102 9.61741 16.766C9.52331 16.6504 9.48712 16.4759 9.40605 16.3309C9.35046 16.2316 9.38058 16.052 9.43501 15.9381C9.55082 15.6946 9.46917 15.4679 9.42285 15.2392C9.34211 14.8355 9.32493 14.4222 9.37189 14.0135C9.40924 13.6746 9.40461 13.3312 9.54937 13.0106C9.62262 12.8478 9.68429 12.6801 9.76159 12.519C9.81112 12.4275 9.83128 12.3238 9.8195 12.2211C9.77318 11.9125 9.8305 11.5943 9.74046 11.2871C9.72216 11.2093 9.72167 11.1284 9.73901 11.0504C9.80126 10.703 9.70311 10.3877 9.51492 10.1029C9.40721 9.94021 9.21381 9.84735 9.03285 9.78142C8.61767 9.63105 8.27718 9.37238 7.93265 9.1168C7.83131 9.04133 7.74301 9.03488 7.62633 9.05816C7.30234 9.12241 7.05248 9.30897 6.80899 9.50704C6.72213 9.57746 6.64743 9.60888 6.54002 9.5365C6.40712 9.44672 6.27944 9.51967 6.16363 9.58672C6.0345 9.66247 5.93201 9.773 5.83994 9.88551C5.50669 10.2968 5.064 10.5588 4.60163 10.8113C4.06397 11.1048 3.52024 11.3881 2.98867 11.6917C2.6835 11.8648 2.40006 12.0713 2.17683 12.3524C2.00138 12.5735 1.81463 12.7945 1.59517 12.9718C1.32764 13.1879 1.01061 13.3127 0.646675 13.1831C0.582895 13.1617 0.517444 13.1453 0.450954 13.134C0.357147 13.1166 0.294319 13.0818 0.329931 12.9741C0.353672 12.9023 0.292003 12.888 0.247705 12.8638C0.00681781 12.7351 -0.0418229 12.6268 0.0311382 12.3712C0.0890438 12.1773 0.143765 11.9837 0.343539 11.8701C0.543313 11.7565 0.752352 11.7004 0.975868 11.7829C1.15422 11.8494 1.27321 11.8255 1.43216 11.6872C1.88035 11.2974 2.31966 10.8982 2.7501 10.4895C3.09463 10.1624 3.45278 9.84988 3.82772 9.55614C4.10451 9.33927 4.37319 9.11062 4.69051 8.94538C4.91238 8.83025 5.10564 8.66959 5.25683 8.47462C5.28346 8.44011 5.3101 8.40504 5.30807 8.3624C5.29505 8.08802 5.49221 7.95504 5.69575 7.83328C5.792 7.7798 5.89443 7.73751 6.00092 7.70731C6.04291 7.69687 6.08204 7.67764 6.11555 7.65099C6.14906 7.62433 6.17615 7.59089 6.1949 7.55301C6.31517 7.30275 6.47132 7.07022 6.65872 6.86229C6.76237 6.74671 6.81188 6.61709 6.72474 6.46503C6.58605 6.2246 6.58692 6.00774 6.8226 5.81023C6.94217 5.70979 7.05219 5.59757 7.18161 5.5078C7.2502 5.46276 7.3319 5.44024 7.41468 5.44355C7.60548 5.44355 7.63154 5.42167 7.56292 5.23931C7.49893 5.06902 7.48475 4.92285 7.64978 4.80193C7.69494 4.76883 7.67699 4.73264 7.65122 4.69224C7.53692 4.508 7.44464 4.31176 7.37617 4.10729C7.27773 3.83123 7.09157 3.60005 6.94188 3.3498C6.72387 2.98256 6.56144 2.59905 6.52583 2.17345C6.51036 2.0192 6.52932 1.86353 6.58142 1.717C6.69086 1.43056 6.80725 1.15001 6.92683 0.869457C7.00905 0.676999 7.15845 0.538688 7.34346 0.437409C7.46882 0.368674 7.59158 0.295731 7.71984 0.230082C7.95378 0.109446 8.18917 0.0684853 8.44164 0.156859C8.48854 0.173411 8.53805 0.191928 8.58119 0.165836C8.79833 0.0342582 9.00708 0.125437 9.21989 0.179022C9.49494 0.248318 9.72917 0.398974 9.97758 0.521574C10.0934 0.579087 10.1258 0.701688 10.1936 0.796233C10.305 0.952849 10.3908 1.12517 10.4481 1.30712C10.5109 1.50126 10.5998 1.68642 10.6157 1.89347C10.6195 1.9434 10.6655 1.95771 10.704 1.97763C10.7622 2.00643 10.8135 2.04696 10.8542 2.09651C10.8949 2.14606 10.9243 2.20348 10.9403 2.26491C11.0341 2.59709 11.0761 2.92589 10.8763 3.24039C10.8331 3.30828 10.7914 3.37674 10.722 3.42331C10.6704 3.45781 10.6641 3.50747 10.6774 3.56078C10.6907 3.61408 10.7437 3.60146 10.7822 3.61689C11.0789 3.73191 11.3945 3.62081 11.6956 3.68983C11.7295 3.69657 11.7647 3.69366 11.7969 3.68146C11.8291 3.66927 11.857 3.6483 11.8772 3.6211C12.0089 3.44126 12.2168 3.38094 12.4099 3.30183C12.603 3.22271 12.6612 3.13715 12.5975 2.94665C12.5318 2.75027 12.5396 2.54967 12.5437 2.34908C12.5497 2.02729 12.482 1.71784 12.3905 1.4112C12.3702 1.34303 12.3436 1.2914 12.2582 1.28888C12.2095 1.28475 12.1637 1.265 12.1279 1.23277C12.0243 1.1486 11.9067 1.12756 11.7756 1.1458C11.6189 1.16768 11.4605 1.18648 11.3928 0.992338C11.3867 0.975224 11.3554 0.964283 11.3349 0.953622C11.2257 0.892742 11.1901 0.802966 11.2405 0.692429C11.279 0.60602 11.2955 0.538688 11.222 0.451998C11.1484 0.365308 11.2333 0.168081 11.378 0.088685C11.5208 0.0123752 11.6762 -0.0235352 11.8343 0.0508106C11.8605 0.0624579 11.889 0.0684874 11.9179 0.0684874C11.9467 0.0684874 11.9752 0.0624579 12.0014 0.0508106C12.4241 -0.0961978 12.7507 0.0993459 13.0605 0.336692C13.1074 0.371265 13.1436 0.417636 13.1652 0.47076C13.1868 0.523885 13.1929 0.581729 13.1829 0.638003C13.154 0.788939 13.2267 0.897512 13.3043 1.01254C13.5631 1.39661 13.7863 1.80032 13.945 2.23265C14.0515 2.52274 14.1332 2.82181 14.2142 3.12003C14.2953 3.41826 14.1885 3.67356 13.9826 3.89155C13.8317 4.05573 13.6712 4.21132 13.5017 4.35754C13.3364 4.49585 13.3017 4.66025 13.3494 4.84878C13.3908 5.01206 13.3529 5.12933 13.1951 5.2135C13.0269 5.30159 12.9809 5.44804 13.024 5.6203C13.13 6.04309 13.2574 6.45914 13.4392 6.85809C13.6169 7.24749 13.7634 7.64363 13.8396 8.06838C13.8975 8.384 14.0182 8.6884 14.1086 8.99841C14.2548 9.49364 14.3092 10.0101 14.2693 10.5238C14.2449 10.8307 14.2791 11.1295 14.427 11.4103C14.4787 11.5159 14.5222 11.6251 14.5573 11.7369C14.6731 12.071 14.8057 12.3897 15.1103 12.6164C15.2056 12.6874 15.2615 12.808 15.3367 12.9048C15.4201 13.0128 15.3947 13.0933 15.2875 13.175C15.0799 13.3307 14.846 13.442 14.6216 13.5694L14.6089 13.5761C14.3483 13.715 14.3535 13.7142 14.4062 14.0009C14.4505 14.2439 14.5365 14.4809 14.5235 14.7329C14.5227 14.7563 14.5291 14.7794 14.5418 14.7994C14.5545 14.8193 14.573 14.8352 14.595 14.8451C14.7366 14.9214 14.7997 15.0496 14.8492 15.1899C14.965 15.522 15.0258 15.8685 15.1213 16.206C15.2432 16.6375 15.3819 17.0659 15.4922 17.4991C15.5982 17.9154 15.7765 18.311 15.7768 18.7616C15.7771 19.2121 15.8819 19.6593 15.9862 20.1003C16.0087 20.1966 16.0134 20.2847 15.9361 20.3615C15.895 20.4028 15.8993 20.4541 15.9071 20.5069C15.9207 20.591 15.9274 20.6752 15.9407 20.7568C16.0241 21.2725 15.5516 21.8423 15.0391 21.9697C14.5356 22.0945 14.1201 21.9814 13.7174 21.709C13.5156 21.5729 13.3047 21.4497 13.0862 21.3404C13.0121 21.3033 12.9736 21.3028 12.9363 21.3909C12.7747 21.771 12.473 22.0129 12.092 22.1742C11.8485 22.2777 11.5917 22.269 11.3369 22.2474C11.0155 22.2193 10.711 22.131 10.446 21.945C10.1811 21.759 9.89594 21.6173 9.60149 21.4877C9.13042 21.2803 8.68802 21.0231 8.24765 20.7616C8.06351 20.6525 8.04035 20.664 8.00792 20.8713C7.95127 21.2316 7.85319 21.5847 7.7155 21.9239C7.64659 22.0939 7.48185 22.2078 7.31914 22.2017C7.04351 22.1913 6.91843 22.1063 6.85589 21.886C6.7732 21.5844 6.73844 21.2723 6.75282 20.9605Z" fill="white"/>
</svg>
