<svg width="76" height="25" viewBox="0 0 76 25" fill="none" xmlns="http://www.w3.org/2000/svg">
<path d="M46.1126 5.03034C46.1126 6.5421 46.1085 8.05549 46.1126 9.56561C46.1184 9.6797 46.0992 9.79368 46.0562 9.89978C46.0132 10.0059 45.9475 10.1016 45.8635 10.1804C43.5937 12.4321 41.3285 14.6874 39.0681 16.9461C38.9743 17.0393 38.8805 17.2168 38.7517 17.1718C38.579 17.1113 38.6637 16.9093 38.6629 16.7712C38.6587 13.746 38.6629 10.7209 38.6529 7.69574C38.6508 7.56194 38.6771 7.42917 38.7301 7.30597C38.7832 7.18277 38.8618 7.07185 38.961 6.98033C40.6028 5.26336 42.3118 3.61997 43.995 1.94715C44.5656 1.38136 45.1128 0.792688 45.675 0.218729C45.7672 0.124704 45.8602 -0.0412703 46.0022 0.0094213C46.1807 0.0731946 46.1043 0.270238 46.1052 0.409231C46.1143 1.94878 46.1126 3.49079 46.1126 5.03034Z" fill="white"/>
<path d="M18.5673 14.5277C18.5673 13.6831 18.5772 12.8385 18.5623 11.9931C18.5573 11.6824 18.6512 11.5442 18.9866 11.5622C19.4019 11.5843 19.8171 11.5786 20.2323 11.5622C20.5155 11.5532 20.6334 11.6554 20.6226 11.9408C20.6068 12.3357 20.6101 12.7314 20.6226 13.1255C20.6276 13.289 20.5254 13.5081 20.7604 13.5899C21.0096 13.6774 21.0926 13.4697 21.1865 13.3037C21.4804 12.7976 21.7819 12.2956 22.0692 11.7854C22.1048 11.7125 22.1622 11.6521 22.2339 11.6125C22.3055 11.5729 22.3877 11.5559 22.4695 11.5638C23.0092 11.5712 23.549 11.5704 24.088 11.5638C24.3786 11.5638 24.4276 11.6497 24.2723 11.8974C23.8081 12.6333 23.3838 13.3994 22.8922 14.1189C22.6779 14.432 22.7327 14.656 22.9071 14.9275C23.3323 15.5938 23.7508 16.2635 24.1685 16.9339C24.2117 17.0026 24.2374 17.1072 24.323 17.108C24.4459 17.108 24.4401 16.9829 24.4733 16.8971C25.072 15.3232 25.6774 13.7509 26.272 12.1754C26.5004 11.5688 26.4896 11.5647 27.1315 11.5647C27.5044 11.5647 27.8789 11.5916 28.2509 11.5565C28.6229 11.5213 28.7691 11.6849 28.8804 11.9857C29.3363 13.222 29.8013 14.4549 30.2655 15.6879C30.4424 16.158 30.6176 16.6297 30.8095 17.0941C30.9473 17.4285 30.8311 17.5283 30.4906 17.5128C30.0903 17.4948 29.6876 17.4923 29.2873 17.5128C28.9767 17.5291 28.7724 17.431 28.7201 17.1211C28.6678 16.8113 28.471 16.7442 28.1837 16.7573C27.7831 16.7777 27.3817 16.7777 26.9812 16.7573C26.7155 16.7434 26.551 16.8153 26.5037 17.0843C26.4414 17.4326 26.2222 17.5201 25.8809 17.5144C24.8154 17.4964 23.75 17.4931 22.6845 17.5144C22.3432 17.5218 22.1456 17.3934 21.9895 17.1211C21.7127 16.6376 21.4264 16.1585 21.1308 15.6838C21.0478 15.553 20.9822 15.3567 20.7737 15.3984C20.5354 15.4475 20.6259 15.6601 20.6218 15.8072C20.6101 16.2291 20.5993 16.6526 20.6218 17.0737C20.6417 17.4204 20.498 17.5299 20.1625 17.5111C19.7899 17.4854 19.4158 17.4854 19.0431 17.5111C18.6429 17.543 18.5507 17.3705 18.559 17.0132C18.5806 16.1899 18.5673 15.3575 18.5673 14.5277ZM27.6082 13.6994C27.4579 14.1557 27.3159 14.5735 27.1838 14.9945C27.1547 15.0886 27.0941 15.2292 27.2801 15.2398C27.5014 15.2509 27.7232 15.2509 27.9445 15.2398C28.0632 15.2349 28.1106 15.1646 28.0682 15.0428C27.9154 14.607 27.7693 14.172 27.6082 13.6994Z" fill="white"/>
<path d="M11.8989 14.5628C11.928 16.4147 10.625 17.6648 8.63118 17.6624C6.60659 17.6624 5.34849 16.4131 5.36095 14.4737C5.37258 12.6185 6.66805 11.3897 8.65527 11.4068C10.5918 11.4248 11.9288 12.5777 11.8989 14.5628ZM9.76804 14.6151C9.76804 14.096 9.70327 13.6814 9.28556 13.4312C8.75907 13.1165 8.05404 13.2424 7.72934 13.6921C7.33654 14.2349 7.40879 15.1425 7.86802 15.5178C8.25251 15.8326 8.68599 15.9364 9.13277 15.7091C9.60113 15.4704 9.82285 15.064 9.76804 14.6151Z" fill="white"/>
<path d="M55.837 17.6754C53.7584 17.5651 52.5609 16.512 52.5609 14.517C52.5609 12.5891 53.7883 11.3995 55.8685 11.4142C57.9895 11.4289 59.128 12.6406 59.1255 14.5211C59.1214 16.53 57.9064 17.57 55.837 17.6754ZM55.8611 13.2604C55.156 13.2538 54.6694 13.7738 54.6669 14.5358C54.6669 15.2799 55.1344 15.8015 55.8187 15.817C56.503 15.8326 57.017 15.2946 57.0154 14.535C57.0129 13.7926 56.5379 13.2669 55.8611 13.2612V13.2604Z" fill="white"/>
<path d="M33.3489 11.8009C33.3489 10.9016 33.3489 10.0022 33.3489 9.10282C33.3489 8.99899 33.3033 8.85754 33.4145 8.80358C33.5258 8.74962 33.6072 8.8788 33.6786 8.94993C35.0283 10.3001 36.3736 11.6505 37.7145 13.0012C37.7768 13.064 37.825 13.1391 37.8557 13.2215C37.8865 13.304 37.8992 13.3919 37.8931 13.4795C37.8931 15.2635 37.8931 17.0483 37.8889 18.8323C37.8889 18.9354 37.9362 19.0776 37.8233 19.1308C37.7104 19.1839 37.6315 19.0539 37.5592 18.982C36.2015 17.6468 34.8362 16.3174 33.525 14.9356C33.4608 14.8657 33.4118 14.7836 33.3813 14.6942C33.3507 14.6049 33.3391 14.5104 33.3473 14.4164C33.3514 13.5449 33.3489 12.6725 33.3489 11.8009Z" fill="white"/>
<path d="M46.8858 14.4982C46.8858 13.6534 46.8858 12.8085 46.8858 11.9636C46.8858 11.769 46.8733 11.5614 47.1665 11.5704C48.3108 11.6055 49.4626 11.4518 50.5986 11.6521C51.8069 11.8647 52.3625 12.7796 52.2794 14.0003C52.1831 15.4229 51.1243 15.9258 49.9542 15.9535C49.0258 15.9756 49.025 15.9617 49.0225 16.8783C49.0225 17.5086 49.0225 17.5095 48.3714 17.5103C48.0118 17.5103 47.6514 17.4964 47.2919 17.5103C46.9863 17.525 46.8766 17.4073 46.8833 17.108C46.8941 16.2413 46.8858 15.3698 46.8858 14.4982ZM49.505 14.2652C49.5598 14.2652 49.6146 14.2652 49.671 14.2652C50.0306 14.2856 50.2249 14.1017 50.2258 13.7656C50.2266 13.4296 50.0397 13.2424 49.6777 13.2595C49.5274 13.2661 49.3762 13.2595 49.2251 13.2595C49.1701 13.2547 49.1148 13.2669 49.0672 13.2944C49.0195 13.322 48.9818 13.3635 48.9594 13.4132C48.741 13.8858 48.9901 14.266 49.505 14.2652Z" fill="white"/>
<path d="M74.956 17.5119C74.8454 17.5041 74.7344 17.5041 74.6238 17.5119C74.2019 17.5724 73.8963 17.4759 73.8241 17.0001C73.7917 16.7867 73.6231 16.7115 73.4255 16.7401C72.9996 16.7897 72.5697 16.796 72.1425 16.7589C71.8485 16.7426 71.6575 16.8153 71.6085 17.1187C71.5595 17.422 71.3752 17.5332 71.0588 17.5152C70.6311 17.4907 70.2009 17.498 69.7724 17.5152C69.4801 17.525 69.4012 17.4236 69.505 17.1563C69.7541 16.5234 69.99 15.8873 70.2316 15.2529C70.6518 14.1491 71.0804 13.0453 71.4864 11.9383C71.5861 11.6652 71.7306 11.5508 72.0279 11.563C72.5112 11.5826 72.9962 11.5761 73.4803 11.563C73.7336 11.5565 73.8764 11.635 73.9711 11.8901C74.6055 13.5809 75.2583 15.2651 75.9035 16.9519C76.0887 17.4375 76.0355 17.5087 75.4949 17.5119C75.3147 17.5127 75.1362 17.5119 74.956 17.5119ZM72.7088 13.5768C72.6731 14.1434 72.4182 14.5424 72.3277 14.9912C72.2895 15.1801 72.3393 15.2439 72.5178 15.2455H72.7238C73.2428 15.2455 73.2602 15.2251 73.1033 14.755C72.9837 14.4017 72.865 14.0494 72.7088 13.5768Z" fill="white"/>
<path d="M17.7119 14.5759C17.7119 15.4197 17.7036 16.2634 17.7161 17.1064C17.7161 17.3991 17.6272 17.5291 17.3142 17.5152C16.8989 17.4972 16.4837 17.498 16.0685 17.5152C15.7687 17.5275 15.6392 17.4253 15.6533 17.1186C15.6716 16.7524 15.6533 16.3828 15.6574 16.0165C15.6574 15.7974 15.6051 15.6993 15.3352 15.759C14.8381 15.8641 14.3243 15.868 13.8255 15.7704C12.8921 15.5963 12.2992 14.8907 12.2593 13.8899C12.2336 13.2358 12.2635 12.5817 12.2494 11.9277C12.2427 11.6325 12.3797 11.5532 12.6505 11.5614C13.0657 11.5736 13.4809 11.5769 13.8961 11.5614C14.1959 11.5491 14.3213 11.6521 14.3113 11.9579C14.2939 12.4207 14.3072 12.8834 14.3113 13.3478C14.3113 13.6062 14.3744 13.8539 14.6352 13.957C14.9201 14.0661 15.2363 14.0661 15.5213 13.957C15.6832 13.8989 15.6616 13.7395 15.6624 13.6046C15.6624 13.0461 15.6707 12.4885 15.6624 11.9309C15.6583 11.6734 15.7513 11.5581 16.0228 11.5663C16.4513 11.5777 16.8798 11.581 17.3083 11.5663C17.6098 11.5548 17.751 11.6619 17.7161 11.9653C17.7153 11.9789 17.7153 11.9925 17.7161 12.0061L17.7119 14.5759Z" fill="white"/>
<path d="M64.5631 12.6594C64.5465 12.9301 64.6321 13.2873 64.4892 13.4492C64.3107 13.6504 64.0391 13.3323 63.7933 13.2816C63.1805 13.1557 62.5934 13.1181 62.0619 13.5269C61.66 13.8311 61.4465 14.4549 61.5902 14.9095C61.6688 15.1643 61.8258 15.3889 62.0396 15.5522C62.2533 15.7155 62.5133 15.8094 62.7835 15.8211C63.3075 15.8424 63.8349 15.8604 64.3182 15.593C64.5133 15.4851 64.6312 15.5341 64.6296 15.7753C64.6296 16.1841 64.6238 16.5929 64.6296 17.0017C64.6366 17.0908 64.6118 17.1795 64.5595 17.2525C64.5072 17.3255 64.4307 17.3782 64.3431 17.4015C63.0434 17.8774 61.1567 17.7507 60.1569 16.6338C59.5639 15.9707 59.3696 15.176 59.4336 14.3257C59.5282 13.0748 60.1145 12.1288 61.3436 11.6628C62.3235 11.2924 63.3142 11.3562 64.2974 11.6742C64.4809 11.7331 64.5532 11.8606 64.5465 12.0487C64.5374 12.2531 64.5465 12.4575 64.5465 12.6619L64.5631 12.6594Z" fill="white"/>
<path d="M2.6853 11.5679C3.41774 11.5679 4.15101 11.5786 4.88345 11.5638C5.22725 11.5573 5.35929 11.6947 5.34102 12.025C5.32441 12.3373 5.33438 12.6513 5.33188 12.9644C5.33188 13.2285 5.21562 13.3618 4.92663 13.3454C4.63764 13.3291 4.34533 13.356 4.05551 13.3389C3.76569 13.3217 3.67102 13.4394 3.67352 13.7199C3.68431 14.8228 3.66521 15.9274 3.68514 17.0279C3.69178 17.3966 3.57968 17.5463 3.1927 17.5185C2.80549 17.4963 2.4173 17.4963 2.03009 17.5185C1.72533 17.5324 1.61488 17.4187 1.61986 17.1178C1.63149 16.0149 1.61156 14.9103 1.63066 13.809C1.6373 13.4599 1.54762 13.2996 1.16728 13.3413C0.948875 13.365 0.722998 13.3266 0.502935 13.3495C0.125919 13.3887 0.00467654 13.2228 0.0428763 12.8761C0.0902108 12.4624 -0.141479 11.9375 0.150002 11.6595C0.421552 11.4003 0.943062 11.5884 1.35329 11.5777C1.79924 11.5565 2.24268 11.5679 2.6853 11.5679Z" fill="white"/>
<path d="M67.5087 11.5687C68.2286 11.5687 68.9486 11.5826 69.6678 11.5622C70.0174 11.5524 70.137 11.6808 70.1137 12.0127C70.0921 12.3121 70.0921 12.6127 70.1137 12.9121C70.1411 13.2612 69.9867 13.3724 69.6537 13.3462C69.4045 13.3274 69.1554 13.3568 68.9063 13.3397C68.6106 13.3192 68.5243 13.4468 68.5268 13.724C68.5376 14.8269 68.5168 15.9315 68.5384 17.0336C68.5459 17.4114 68.4196 17.5446 68.0401 17.5185C67.6529 17.4964 67.2647 17.4964 66.8775 17.5185C66.5653 17.5324 66.4706 17.404 66.4739 17.1097C66.4856 16.0067 66.4648 14.9021 66.4856 13.8C66.4922 13.4386 66.376 13.3331 66.0122 13.3372C64.8995 13.3487 64.8995 13.3372 64.9003 12.2531C64.9003 12.1443 64.9086 12.0348 64.9003 11.926C64.8795 11.6611 65.0016 11.5647 65.2657 11.5679C66.018 11.5753 66.7654 11.5687 67.5087 11.5687Z" fill="white"/>
<path d="M37.8906 22.5525C37.8906 23.0291 37.8906 23.505 37.8906 23.9808C37.8906 24.0716 37.9163 24.1836 37.8167 24.24C37.717 24.2964 37.6348 24.2065 37.5717 24.1419C36.8343 23.3919 36.0988 22.6405 35.3652 21.8877C35.2581 21.7782 35.2622 21.6425 35.2622 21.5059C35.2622 20.6066 35.2622 19.7072 35.2622 18.8127C35.2622 18.6991 35.2108 18.5388 35.3611 18.4914C35.4973 18.4481 35.5761 18.5887 35.6609 18.6713C36.3252 19.3254 36.9895 19.9794 37.6539 20.6294C37.7349 20.702 37.7983 20.7915 37.8394 20.8914C37.8806 20.9913 37.8983 21.0991 37.8914 21.2067C37.8823 21.6531 37.8914 22.102 37.8906 22.5525Z" fill="white"/>
</svg>
