<svg width="25" height="24" viewBox="0 0 25 24" fill="none" xmlns="http://www.w3.org/2000/svg">
<path d="M5.07648 12.6465C4.91209 12.5062 4.95418 12.3634 5.08341 12.2465C5.25078 12.0934 5.28445 11.9256 5.20027 11.721C5.18319 11.6916 5.1746 11.6578 5.17551 11.6235C5.22503 11.4108 5.14531 11.3174 4.93388 11.3429C4.93982 11.3092 4.93833 11.2847 4.94626 11.2807C5.28148 11.1113 5.27652 11.1138 5.11065 10.7633C5.04202 10.6087 4.98426 10.4493 4.93784 10.2862C4.90565 10.1842 4.87347 10.1331 4.74819 10.1643C3.71283 10.4015 3.06913 10.1316 2.58635 9.15248C2.38086 8.73664 2.14071 8.53051 1.69854 8.46724C1.27879 8.40391 0.884451 8.22141 0.559683 7.94017C-0.038959 7.42994 -0.0914453 6.77685 0.0967133 6.06304C0.195735 5.71141 0.345994 5.37732 0.542352 5.07217C0.59781 4.98186 0.629499 4.90074 0.583945 4.789C0.361621 4.24305 0.494322 3.73894 0.777056 3.2629C0.918542 3.03573 1.04525 2.79915 1.15634 2.5547C1.55247 1.62863 2.55515 1.39086 3.30581 2.02304C3.32053 2.03731 3.33847 2.04758 3.35801 2.05292C3.37754 2.05827 3.39806 2.05852 3.41771 2.05365C3.30515 1.87133 3.19291 1.68935 3.08101 1.50771C2.81907 1.08422 2.88295 0.857674 3.32859 0.684706C3.69649 0.543373 4.07132 0.441837 4.41793 0.219887C4.76453 -0.00206329 5.09678 0.109677 5.40823 0.458674C5.52431 0.585974 5.67587 0.672997 5.842 0.707728C6.00812 0.742459 6.18062 0.723182 6.33566 0.652562C6.658 0.499493 6.97936 0.346424 7.30567 0.201518C7.71516 0.0198766 8.12713 -0.0765569 8.57821 0.0749814C8.99662 0.215295 9.42988 0.0923292 9.85571 0.0749814C10.0315 0.0668177 10.183 0.0749814 10.3073 0.213254C10.3746 0.288768 10.4623 0.302034 10.5549 0.299993C10.7118 0.296931 10.8693 0.306116 11.0253 0.29336C11.5016 0.255093 11.9269 0.356628 12.2632 0.73726C12.2973 0.771647 12.3384 0.797789 12.3835 0.813794C13.0475 1.06891 13.6516 1.4623 14.3146 1.72455C14.5192 1.80215 14.6897 1.9535 14.7944 2.1506C14.9494 2.45316 15.1875 2.65062 15.4653 2.8042C16.311 3.27412 16.4977 4.06906 16.4878 4.96554C16.4878 5.04156 16.4754 5.1186 16.4734 5.19412C16.469 5.36556 16.4829 5.54005 16.2303 5.37321C16.1135 5.29616 16.062 5.39005 16.0818 5.50536C16.1808 6.09416 16.0174 6.67225 16.0149 7.25749C16.0149 7.45086 15.9313 7.66057 15.8357 7.83303C15.6079 8.24376 15.7124 8.6198 15.906 8.98972C16.0996 9.35963 16.2992 9.73874 16.5254 10.0933C16.8314 10.573 16.6141 10.8587 16.1838 11.0429C15.7263 11.2409 15.7099 11.2541 15.8372 11.7572C15.9006 12.0036 15.8317 12.1741 15.6025 12.271C15.4366 12.3409 15.2692 12.4077 15.0697 12.4889C15.1999 12.5363 15.3004 12.5669 15.396 12.6093C15.5594 12.6823 15.6252 12.821 15.6198 12.9986C15.6144 13.1762 15.5119 13.2629 15.3519 13.3154C14.9216 13.4583 14.8989 13.4996 14.933 13.94C14.9761 14.4951 14.6488 14.8671 14.0913 14.9145C13.5496 14.9604 13.0425 14.8262 12.5479 14.6227C11.8849 14.3507 11.4872 14.5053 11.1847 15.1773C10.8554 15.9084 10.7287 16.7024 10.5361 17.4733C10.3875 18.0652 10.233 18.657 10.1771 19.2693C10.1605 19.4074 10.1731 19.5476 10.2142 19.6801C10.2552 19.8127 10.3236 19.9345 10.4147 20.0372C10.794 20.4929 11.0411 21.0408 11.2209 21.6072C11.4714 22.396 11.8715 23.0904 12.3642 23.7374C12.4107 23.7991 12.5092 23.8599 12.4543 23.9527C12.4127 24.0231 12.3181 23.994 12.2463 23.994C8.95354 23.994 5.66093 23.9932 2.36848 23.9915C2.23132 23.9915 2.09466 23.9976 2.10555 23.7874C2.16101 22.7078 2.22736 21.6312 2.61853 20.6107C3.06417 19.4474 3.56329 18.3106 4.16639 17.2228C4.6764 16.3013 5.2176 15.3977 5.51519 14.3655C5.7758 13.4774 5.8929 12.5513 5.8618 11.624C5.85437 11.3995 5.70632 11.3454 5.57956 11.25C5.51717 11.2031 5.4736 11.2638 5.43547 11.3072C5.38625 11.3592 5.35225 11.4245 5.33736 11.4955C5.32247 11.5665 5.3273 11.6404 5.35129 11.7087C5.40576 11.8955 5.4216 12.0827 5.24929 12.219C5.11263 12.3266 5.04281 12.4572 5.07648 12.6465Z" fill="white"/>
<path d="M22.4371 18.7909C24.0781 17.1029 25 14.8135 25 12.4263C25 10.0391 24.0781 7.74974 22.4371 6.06176L21.4887 7.03732C22.8781 8.46657 23.6587 10.405 23.6587 12.4263C23.6587 14.4476 22.8781 16.386 21.4887 17.8153L22.4371 18.7909Z" fill="white"/>
<path d="M21.111 15.5823C21.8493 13.5539 21.8518 11.3198 21.118 9.28968L20.1108 9.67487C20.7544 11.4557 20.7522 13.4154 20.1046 15.1947L21.111 15.5823Z" fill="white"/>
<path d="M19.1273 13.2769C19.1864 12.6364 19.1785 11.9912 19.1039 11.3525L18.037 11.4843C18.1025 12.0447 18.1093 12.6106 18.0575 13.1724L19.1273 13.2769Z" fill="white"/>
</svg>
