<svg width="18" height="16" viewBox="0 0 18 16" fill="none" xmlns="http://www.w3.org/2000/svg">
<path d="M8.27538 3.62383L8.99845 4.3807L9.72152 3.62383C10.4506 2.86065 11.574 1.99152 12.7454 1.99152C13.8954 1.99152 14.8118 2.38834 15.4383 3.01376C16.0647 3.63905 16.4615 4.55296 16.4615 5.69921C16.4615 6.93514 15.9825 7.97817 15.1854 8.97168C14.3691 9.98909 13.2711 10.8937 12.0887 11.8625C12.0886 11.8625 12.0886 11.8626 12.0885 11.8626L12.0644 11.8824C11.0431 12.7188 9.91183 13.6453 8.99895 14.6814C8.09503 13.6542 6.97449 12.7351 5.96222 11.9049L5.91112 11.863L5.91072 11.8626C4.72798 10.8935 3.63004 9.98864 2.81402 8.97123C2.01719 7.97775 1.53845 6.93487 1.53845 5.69921C1.53845 4.55296 1.93529 3.63908 2.56173 3.0138C3.1883 2.38839 4.1049 1.99152 5.25538 1.99152C6.42537 1.99152 7.5455 2.85983 8.27538 3.62383Z" stroke="black" stroke-width="2"/>
</svg>
