<svg width="18" height="16" viewBox="0 0 18 16" fill="none" xmlns="http://www.w3.org/2000/svg">
<path d="M12.7454 0.99154C11.1331 0.99154 9.75537 2.14077 8.99845 2.93308C8.24153 2.14077 6.86691 0.99154 5.25538 0.99154C2.47768 0.99154 0.538452 2.92769 0.538452 5.69923C0.538452 8.75308 2.94691 10.7269 5.27691 12.6362C6.37691 13.5385 7.51538 14.4708 8.38845 15.5046C8.53538 15.6777 8.75076 15.7777 8.97691 15.7777H9.02153C9.24845 15.7777 9.46307 15.6769 9.60922 15.5046C10.4838 14.4708 11.6215 13.5377 12.7223 12.6362C15.0515 10.7277 17.4615 8.75385 17.4615 5.69923C17.4615 2.92769 15.5223 0.99154 12.7454 0.99154Z" fill="#E14544"/>
</svg>
