<svg width="165" height="27" viewBox="0 0 165 27" fill="none" xmlns="http://www.w3.org/2000/svg">
<path d="M53.2266 20.651H49.7495L44.2823 13.4781V20.651H41.2644V5.34296H44.2823V12.1004L49.5308 5.34296H53.0079L47.3439 12.7783L53.2266 20.651Z" fill="#03071B"/>
<path d="M66.2835 18.6586C64.7382 20.1894 62.8575 20.9548 60.6414 20.9548C58.4254 20.9548 56.5482 20.1856 55.0101 18.6475C53.472 17.1094 52.7031 15.2252 52.7031 12.9946C52.7031 10.764 53.472 8.87952 55.0101 7.34142C56.5482 5.80333 58.4254 5.03442 60.6414 5.03442C62.8575 5.03442 64.7382 5.80333 66.2835 7.34142C67.8289 8.87952 68.6016 10.764 68.6016 12.9946C68.6016 15.2252 67.8289 17.1132 66.2835 18.6586ZM57.1206 16.603C58.0682 17.536 59.2418 18.0026 60.6414 18.0026C62.041 18.0026 63.2146 17.5322 64.1623 16.5919C65.1099 15.6515 65.5837 14.4525 65.5837 12.9946C65.5837 11.5367 65.1099 10.3339 64.1623 9.38629C63.2146 8.43865 62.041 7.96483 60.6414 7.96483C59.2418 7.96483 58.0682 8.43865 57.1206 9.38629C56.1729 10.3339 55.6991 11.5367 55.6991 12.9946C55.6991 14.4525 56.1729 15.6553 57.1206 16.603Z" fill="#03071B"/>
<path d="M79.4237 5.34296H82.4197V20.651H79.4237V14.3091H73.7379V20.651H70.72V5.34296H73.7379V11.4224H79.4237V5.34296Z" fill="#03071B"/>
<path d="M92.5259 20.9548C90.2224 20.9548 88.3198 20.1894 86.8181 18.6586C85.3165 17.1278 84.5657 15.2398 84.5657 12.9946C84.5657 10.7349 85.3165 8.84307 86.8181 7.31956C88.3198 5.79604 90.2224 5.03442 92.5259 5.03442C93.9109 5.03442 95.1901 5.35866 96.3637 6.00743C97.5373 6.65621 98.4523 7.53474 99.1083 8.64276L96.506 10.1517C96.1269 9.46648 95.5875 8.93055 94.8877 8.5442C94.1879 8.15786 93.4006 7.96483 92.5259 7.96483C91.0388 7.96483 89.8395 8.43136 88.9283 9.36442C88.0171 10.2975 87.5617 11.5076 87.5617 12.9946C87.5617 14.4671 88.0171 15.6699 88.9283 16.603C89.8395 17.536 91.0388 18.0026 92.5259 18.0026C93.4006 18.0026 94.1914 17.8092 94.8985 17.4229C95.6056 17.0365 96.1415 16.5082 96.506 15.8376L99.1083 17.3465C98.4523 18.4545 97.5411 19.3328 96.3748 19.9815C95.2084 20.6303 93.9255 20.9548 92.5259 20.9548Z" fill="#03071B"/>
<path d="M111.464 5.34296V8.22962H107.33V20.651H104.313V8.22962H100.201V5.34296H111.464Z" fill="#03071B"/>
<path d="M121.875 20.651L120.956 17.8956H114.855L113.936 20.651H110.678L116.036 5.34296H119.775L125.155 20.651H121.875ZM115.817 15.0745H120.016L117.917 8.82007L115.817 15.0745Z" fill="#03071B"/>
<path d="M135.341 5.34296H138.337V20.651H135.341V14.3091H129.656V20.651H126.638V5.34296H129.656V11.4224H135.341V5.34296Z" fill="#03071B"/>
<path d="M151.525 5.34296V8.22962H147.391V20.651H144.373V8.22962H140.262V5.34296H151.525Z" fill="#03071B"/>
<path d="M161.72 20.651L160.801 17.8956H154.7L153.781 20.651H150.523L155.881 5.34296H159.62L165 20.651H161.72ZM155.662 15.0745H159.861L157.761 8.82007L155.662 15.0745Z" fill="#03071B"/>
<path fill-rule="evenodd" clip-rule="evenodd" d="M11.7621 0.837463H0V14.5602C0 17.6799 1.23923 20.6715 3.44505 22.877C5.65087 25.0829 8.6425 26.3221 11.7619 26.3221H11.7621V0.837463Z" fill="#F8303B"/>
<path fill-rule="evenodd" clip-rule="evenodd" d="M26.0184 0.837816C26.0184 6.78697 21.1956 11.6095 15.2467 11.6095C13.9046 11.6095 12.9919 11.6095 12.9919 11.6095V0.837524H26.0184V0.837816Z" fill="#E6A128"/>
<path fill-rule="evenodd" clip-rule="evenodd" d="M12.9919 12.6879C12.9919 16.3047 14.4285 19.7731 16.986 22.3306C19.5432 24.888 23.0119 26.3247 26.6286 26.3247H27.5527V12.6876H12.9919V12.6879Z" fill="#2C44B3"/>
</svg>
