<svg width="165" height="26" viewBox="0 0 165 26" fill="none" xmlns="http://www.w3.org/2000/svg">
<path d="M53.2266 19.8134H49.7495L44.2823 12.6405V19.8134H41.2644V4.50537H44.2823V11.2628L49.5308 4.50537H53.0079L47.3439 11.9407L53.2266 19.8134Z" fill="white"/>
<path d="M66.2835 17.821C64.7382 19.3518 62.8575 20.1172 60.6414 20.1172C58.4254 20.1172 56.5482 19.348 55.0101 17.8099C53.472 16.2718 52.7031 14.3876 52.7031 12.157C52.7031 9.92637 53.472 8.04188 55.0101 6.50378C56.5482 4.96568 58.4254 4.19678 60.6414 4.19678C62.8575 4.19678 64.7382 4.96568 66.2835 6.50378C67.8289 8.04188 68.6016 9.92637 68.6016 12.157C68.6016 14.3876 67.8289 16.2756 66.2835 17.821ZM57.1206 15.7653C58.0682 16.6984 59.2418 17.1649 60.6414 17.1649C62.041 17.1649 63.2146 16.6946 64.1623 15.7542C65.1099 14.8139 65.5837 13.6149 65.5837 12.157C65.5837 10.6991 65.1099 9.49629 64.1623 8.54865C63.2146 7.601 62.041 7.12718 60.6414 7.12718C59.2418 7.12718 58.0682 7.601 57.1206 8.54865C56.1729 9.49629 55.6991 10.6991 55.6991 12.157C55.6991 13.6149 56.1729 14.8177 57.1206 15.7653Z" fill="white"/>
<path d="M79.4237 4.50537H82.4197V19.8134H79.4237V13.4715H73.7379V19.8134H70.72V4.50537H73.7379V10.5849H79.4237V4.50537Z" fill="white"/>
<path d="M92.5259 20.1172C90.2224 20.1172 88.3198 19.3518 86.8181 17.821C85.3165 16.2902 84.5657 14.4022 84.5657 12.157C84.5657 9.89721 85.3165 8.00543 86.8181 6.48191C88.3198 4.95839 90.2224 4.19678 92.5259 4.19678C93.9109 4.19678 95.1901 4.52102 96.3637 5.16979C97.5373 5.81856 98.4523 6.6971 99.1083 7.80511L96.506 9.31405C96.1269 8.62883 95.5875 8.0929 94.8877 7.70656C94.1879 7.32021 93.4006 7.12718 92.5259 7.12718C91.0388 7.12718 89.8395 7.59371 88.9283 8.52678C88.0171 9.45984 87.5617 10.6699 87.5617 12.157C87.5617 13.6295 88.0171 14.8322 88.9283 15.7653C89.8395 16.6984 91.0388 17.1649 92.5259 17.1649C93.4006 17.1649 94.1914 16.9716 94.8985 16.5852C95.6056 16.1989 96.1415 15.6705 96.506 14.9999L99.1083 16.5088C98.4523 17.6169 97.5411 18.4951 96.3748 19.1439C95.2084 19.7926 93.9255 20.1172 92.5259 20.1172Z" fill="white"/>
<path d="M111.464 4.50537V7.39204H107.33V19.8134H104.313V7.39204H100.201V4.50537H111.464Z" fill="white"/>
<path d="M121.875 19.8134L120.956 17.058H114.855L113.936 19.8134H110.678L116.036 4.50537H119.775L125.155 19.8134H121.875ZM115.817 14.2369H120.016L117.917 7.98249L115.817 14.2369Z" fill="white"/>
<path d="M135.341 4.50537H138.337V19.8134H135.341V13.4715H129.656V19.8134H126.638V4.50537H129.656V10.5849H135.341V4.50537Z" fill="white"/>
<path d="M151.525 4.50537V7.39204H147.391V19.8134H144.373V7.39204H140.262V4.50537H151.525Z" fill="white"/>
<path d="M161.72 19.8134L160.801 17.058H154.7L153.781 19.8134H150.523L155.881 4.50537H159.62L165 19.8134H161.72ZM155.662 14.2369H159.861L157.761 7.98249L155.662 14.2369Z" fill="white"/>
<path fill-rule="evenodd" clip-rule="evenodd" d="M11.7621 0H0V13.7228C0 16.8424 1.23923 19.834 3.44505 22.0396C5.65087 24.2454 8.6425 25.4846 11.7619 25.4846H11.7621V0Z" fill="#F8303B"/>
<path fill-rule="evenodd" clip-rule="evenodd" d="M26.0184 0.000291561C26.0184 5.94945 21.1956 10.7719 15.2467 10.7719C13.9046 10.7719 12.9919 10.7719 12.9919 10.7719V0H26.0184V0.000291561Z" fill="#E6A128"/>
<path fill-rule="evenodd" clip-rule="evenodd" d="M12.9919 11.8504C12.9919 15.4672 14.4285 18.9356 16.986 21.493C19.5432 24.0505 23.0119 25.4871 26.6286 25.4871H27.5527V11.8501H12.9919V11.8504Z" fill="#2C44B3"/>
</svg>
