<svg width="65" height="65" viewBox="0 0 65 65" fill="none" xmlns="http://www.w3.org/2000/svg">
<g opacity="0.1">
<path d="M8.125 13.5417V51.4583C8.125 52.8949 8.69568 54.2727 9.7115 55.2885C10.7273 56.3043 12.1051 56.875 13.5417 56.875H51.4583C52.8949 56.875 54.2727 56.3043 55.2885 55.2885C56.3043 54.2727 56.875 52.8949 56.875 51.4583V13.5417C56.875 12.1051 56.3043 10.7273 55.2885 9.7115C54.2727 8.69568 52.8949 8.125 51.4583 8.125H13.5417C12.1051 8.125 10.7273 8.69568 9.7115 9.7115C8.69568 10.7273 8.125 12.1051 8.125 13.5417ZM18.9583 29.7917H32.5V18.9583L46.0417 32.5L32.5 46.0417V35.2083H18.9583V29.7917Z" fill="black"/>
</g>
</svg>
