<svg width="65" height="65" viewBox="0 0 65 65" fill="none" xmlns="http://www.w3.org/2000/svg">
<g opacity="0.1">
<path d="M56.875 51.4583L56.875 13.5417C56.875 12.1051 56.3043 10.7273 55.2885 9.71151C54.2727 8.69569 52.8949 8.125 51.4583 8.125L13.5417 8.125C12.1051 8.125 10.7273 8.69569 9.7115 9.71151C8.69568 10.7273 8.125 12.1051 8.125 13.5417L8.125 51.4583C8.125 52.8949 8.69569 54.2727 9.71151 55.2885C10.7273 56.3043 12.1051 56.875 13.5417 56.875L51.4583 56.875C52.8949 56.875 54.2727 56.3043 55.2885 55.2885C56.3043 54.2727 56.875 52.8949 56.875 51.4583ZM46.0417 35.2083L32.5 35.2083L32.5 46.0417L18.9583 32.5L32.5 18.9583L32.5 29.7917L46.0417 29.7917L46.0417 35.2083Z" fill="black"/>
</g>
</svg>
