<svg width="14" height="19" viewBox="0 0 14 19" fill="none" xmlns="http://www.w3.org/2000/svg">
<path d="M2.6 10.6087L11.4 10.6094C11.8035 10.6095 12.1921 10.7504 12.4879 11.004C12.7837 11.2576 12.9649 11.6051 12.9952 11.9768L13 12.0877V13.9348C12.9992 17.0391 9.5704 18 7 18C4.4808 18 1.1368 17.0776 1.004 14.1181L1 13.9348V12.087C1 11.3079 1.6528 10.6693 2.48 10.6131L2.6 10.6087ZM2.6 11.7174L2.52 11.7248C2.44322 11.7395 2.37267 11.7744 2.3168 11.8253C2.26174 11.8766 2.22395 11.9416 2.208 12.0123L2.2 12.087V13.9348C2.2 14.9245 2.6696 15.6562 3.636 16.1707C4.4328 16.5964 5.548 16.8529 6.7272 16.8876L7 16.8913L7.348 16.8839C8.564 16.8337 11.6512 16.4722 11.7944 14.1063L11.8 13.934V12.0877C11.7997 12.0013 11.7668 11.9177 11.7069 11.8513C11.647 11.7849 11.564 11.7399 11.472 11.724L11.4 11.7181L2.6 11.7174ZM7 1C8.16695 1 9.28611 1.4283 10.1113 2.19067C10.9364 2.95305 11.4 3.98705 11.4 5.06522C11.4 6.14338 10.9364 7.17738 10.1113 7.93976C9.28611 8.70214 8.16695 9.13043 7 9.13043C5.83305 9.13043 4.71389 8.70214 3.88873 7.93976C3.06357 7.17738 2.6 6.14338 2.6 5.06522C2.6 3.98705 3.06357 2.95305 3.88873 2.19067C4.71389 1.4283 5.83305 1 7 1ZM7 2.1087C5.2352 2.1087 3.8 3.4347 3.8 5.06522C3.8 6.69574 5.2352 8.02174 7 8.02174C8.7648 8.02174 10.2 6.69574 10.2 5.06522C10.2 3.4347 8.7648 2.1087 7 2.1087Z" fill="black" stroke="black" stroke-width="0.5"/>
</svg>
